# xmcd
#
# Track frame offsets: 
#        150
#        28275
#        75525
#        98250
#        147375
#
# Disc length: 2485 seconds
#
# Revision: 3
# Processed by: cddbd v1.5.2PL0 Copyright (c) Steve Scherf et al.
# Submitted via: ExactAudioCopy v0.99pb4
#
DISCID=3509b305
DTITLE=Mark-Almond - Mark-Almond I
DYEAR=1971
DGENRE=Rock
TTITLE0=The Ghetto
TTITLE1=The City: (a) Grass and Concrete (b) Taxi To Brooklyn (c) Spea
TTITLE1=k Easy It's A Whiskey Scene
TTITLE2=Tramp And The Young Girl
TTITLE3=Love: (a) Renaissance (b) Prelude (c) Pickup (d) Hotel Backsta
TTITLE3=ge
TTITLE4=Song For You
EXTD=
EXTT0=
EXTT1=
EXTT2=
EXTT3=
EXTT4=
PLAYORDER=
